<svg width="110" height="116" viewBox="0 0 110 116" fill="none" xmlns="http://www.w3.org/2000/svg">
<path d="M39 77.12H79.96V110.272H39V102.336H66.904V85.184H39V77.12ZM30.424 77.12H43.352V113.728H30.424V77.12ZM24.28 47.296H85.72V56.384H24.28V47.296ZM38.744 89.92H70.232V97.344H38.744V89.92ZM21.464 63.168H88.28V73.024H21.464V63.168ZM32.984 56.128L43.864 53.696C44.888 55.232 45.8267 56.9387 46.68 58.816C47.5333 60.608 48.088 62.1867 48.344 63.552L36.952 66.368C36.7813 65.0027 36.312 63.3387 35.544 61.376C34.776 59.4133 33.9227 57.664 32.984 56.128ZM64.728 53.696L77.016 56.384C75.8213 58.3467 74.712 60.1387 73.688 61.76C72.664 63.296 71.7253 64.6613 70.872 65.856L60.632 63.296C61.3147 61.76 62.04 60.1387 62.808 58.432C63.6613 56.64 64.3013 55.0613 64.728 53.696ZM47.448 42.816H61.272V51.392H47.448V42.816ZM8.664 16.448H40.92V25.792H8.664V16.448ZM67.544 16.448H100.056V25.792H67.544V16.448ZM94.936 0.191994H109.656V97.856C109.656 101.525 109.315 104.469 108.632 106.688C107.949 108.992 106.499 110.784 104.28 112.064C102.147 113.344 99.544 114.112 96.472 114.368C93.4 114.709 89.7307 114.88 85.464 114.88C85.2933 113.429 84.9947 111.808 84.568 110.016C84.1413 108.224 83.6293 106.389 83.032 104.512C82.52 102.72 81.9227 101.184 81.24 99.904C83.544 99.9893 85.8053 100.075 88.024 100.16C90.328 100.16 91.9067 100.117 92.76 100.032C93.6133 100.032 94.168 99.8613 94.424 99.52C94.7653 99.1787 94.936 98.5813 94.936 97.728V0.191994ZM10.072 0.191994H50.648V41.92H10.072V31.68H36.312V10.432H10.072V0.191994ZM102.488 0.191994V10.432H73.688V31.68H102.488V41.92H59.096V0.191994H102.488ZM0.984 0.191994H15.576V115.52H0.984V0.191994Z" fill="white"/>
</svg>
